<svg width="175" height="80" viewBox="0 0 175 80" fill="none" xmlns="http://www.w3.org/2000/svg">
<path d="M37.0928 52.0412C34.2431 53.0688 31.3613 53.4729 28.4475 53.2536C25.5264 53.0143 22.7508 52.2349 20.1207 50.9155C17.5106 49.5889 15.1897 47.8065 13.1581 45.5682C11.1392 43.3027 9.58708 40.6648 8.50162 37.6546C7.40892 34.6242 6.9204 31.6028 7.03606 28.5903C7.16455 25.5505 7.81381 22.6971 8.98385 20.0301C10.1667 17.3357 11.8098 14.9744 13.9131 12.946C16.0092 10.8975 18.4821 9.35953 21.3319 8.33196C24.7435 7.10177 28.1701 6.76197 31.6116 7.31258C35.0458 7.84311 38.1801 9.08276 41.0145 11.0315L35.7221 16.9198C34.0098 15.8818 32.1114 15.2397 30.027 14.9935C27.9627 14.74 25.9471 14.9679 23.9804 15.677C22.1341 16.3428 20.5357 17.35 19.1851 18.6988C17.8273 20.0275 16.7787 21.5848 16.0394 23.3708C15.2928 25.1368 14.8968 27.0258 14.8512 29.0379C14.7985 31.0299 15.1303 33.0192 15.8467 35.006C16.5703 37.0129 17.5881 38.7663 18.9 40.2662C20.232 41.7589 21.7525 42.9568 23.4615 43.86C25.1633 44.7431 26.9544 45.2765 28.8349 45.4602C30.7282 45.6165 32.598 45.3619 34.4443 44.6961C36.4511 43.9725 38.1583 42.858 39.5658 41.3526C40.9861 39.82 42.0241 38.1077 42.6799 36.2157L50.5232 37.4015C49.5775 40.6907 47.9556 43.6454 45.6574 46.2656C43.3593 48.8858 40.5044 50.811 37.0928 52.0412Z" fill="black"/>
<path d="M37.0928 50.0412C34.2431 51.0688 31.3613 51.4729 28.4475 51.2536C25.5264 51.0143 22.7508 50.2349 20.1207 48.9155C17.5106 47.5889 15.1897 45.8065 13.1581 43.5682C11.1392 41.3027 9.58708 38.6648 8.50162 35.6546C7.40892 32.6242 6.9204 29.6028 7.03606 26.5903C7.16455 23.5505 7.81381 20.6971 8.98385 18.0301C10.1667 15.3357 11.8098 12.9744 13.9131 10.946C16.0092 8.89754 18.4821 7.35953 21.3319 6.33196C24.7435 5.10177 28.1701 4.76197 31.6116 5.31258C35.0458 5.84311 38.1801 7.08276 41.0145 9.03151L35.7221 14.9198C34.0098 13.8818 32.1114 13.2397 30.027 12.9935C27.9627 12.74 25.9471 12.9679 23.9804 13.677C22.1341 14.3428 20.5357 15.35 19.1851 16.6988C17.8273 18.0275 16.7787 19.5848 16.0394 21.3708C15.2928 23.1368 14.8968 25.0258 14.8512 27.0379C14.7985 29.0299 15.1303 31.0192 15.8467 33.006C16.5703 35.0129 17.5881 36.7663 18.9 38.2662C20.232 39.7589 21.7525 40.9568 23.4615 41.86C25.1633 42.7431 26.9544 43.2765 28.8349 43.4602C30.7282 43.6165 32.598 43.3619 34.4443 42.6961C36.4511 41.9725 38.1583 40.858 39.5658 39.3526C40.9861 37.82 42.0241 36.1077 42.6799 34.2157L50.5232 35.4015C49.5775 38.6907 47.9556 41.6454 45.6574 44.2656C43.3593 46.8858 40.5044 48.811 37.0928 50.0412Z" fill="#FEC700"/>
<path d="M73.152 43.776V64H65.344V45.824C65.344 44.5653 65.0347 43.424 64.416 42.4C63.7973 41.3547 62.9653 40.5333 61.92 39.936C60.896 39.3173 59.7547 39.008 58.496 39.008C57.2373 39.008 56.0853 39.3173 55.04 39.936C54.016 40.5333 53.1947 41.3547 52.576 42.4C51.9787 43.424 51.68 44.5653 51.68 45.824V64H43.872L43.84 16H51.648L51.68 34.848C52.768 33.696 54.0693 32.7893 55.584 32.128C57.0987 31.4453 58.7307 31.104 60.48 31.104C62.8053 31.104 64.928 31.68 66.848 32.832C68.768 33.9627 70.2933 35.488 71.424 37.408C72.576 39.3067 73.152 41.4293 73.152 43.776ZM100.47 32H108.278V64H100.47L100.118 60.032C99.2438 61.4613 98.0812 62.624 96.6305 63.52C95.2012 64.3947 93.5052 64.832 91.5425 64.832C89.1745 64.832 86.9558 64.384 84.8865 63.488C82.8172 62.592 80.9932 61.3547 79.4145 59.776C77.8572 58.1973 76.6305 56.3733 75.7345 54.304C74.8598 52.2347 74.4225 50.016 74.4225 47.648C74.4225 45.3653 74.8385 43.2213 75.6705 41.216C76.5238 39.2107 77.7078 37.4507 79.2225 35.936C80.7372 34.4213 82.4865 33.2373 84.4705 32.384C86.4545 31.5307 88.5878 31.104 90.8705 31.104C92.9825 31.104 94.8705 31.5733 96.5345 32.512C98.2198 33.4507 99.6492 34.6453 100.823 36.096L100.47 32ZM91.3505 57.312C93.0145 57.312 94.4865 56.896 95.7665 56.064C97.0465 55.232 98.0492 54.112 98.7745 52.704C99.4998 51.2747 99.8625 49.7067 99.8625 48C99.8625 46.272 99.4998 44.704 98.7745 43.296C98.0492 41.8667 97.0358 40.736 95.7345 39.904C94.4545 39.072 92.9932 38.656 91.3505 38.656C89.7078 38.656 88.2038 39.0827 86.8385 39.936C85.4945 40.768 84.4172 41.888 83.6065 43.296C82.8172 44.704 82.4225 46.272 82.4225 48C82.4225 49.728 82.8278 51.296 83.6385 52.704C84.4492 54.112 85.5265 55.232 86.8705 56.064C88.2358 56.896 89.7292 57.312 91.3505 57.312ZM129.247 39.808H123.039V64H115.231V39.808H110.495V32H115.231V21.952H123.039V32H129.247V39.808Z" fill="black"/>
<path d="M71.152 40.776V61H63.344V42.824C63.344 41.5653 63.0347 40.424 62.416 39.4C61.7973 38.3547 60.9653 37.5333 59.92 36.936C58.896 36.3173 57.7547 36.008 56.496 36.008C55.2373 36.008 54.0853 36.3173 53.04 36.936C52.016 37.5333 51.1947 38.3547 50.576 39.4C49.9787 40.424 49.68 41.5653 49.68 42.824V61H41.872L41.84 13H49.648L49.68 31.848C50.768 30.696 52.0693 29.7893 53.584 29.128C55.0987 28.4453 56.7307 28.104 58.48 28.104C60.8053 28.104 62.928 28.68 64.848 29.832C66.768 30.9627 68.2933 32.488 69.424 34.408C70.576 36.3067 71.152 38.4293 71.152 40.776ZM98.4705 29H106.278V61H98.4705L98.1185 57.032C97.2438 58.4613 96.0812 59.624 94.6305 60.52C93.2012 61.3947 91.5052 61.832 89.5425 61.832C87.1745 61.832 84.9558 61.384 82.8865 60.488C80.8172 59.592 78.9932 58.3547 77.4145 56.776C75.8572 55.1973 74.6305 53.3733 73.7345 51.304C72.8598 49.2347 72.4225 47.016 72.4225 44.648C72.4225 42.3653 72.8385 40.2213 73.6705 38.216C74.5238 36.2107 75.7078 34.4507 77.2225 32.936C78.7372 31.4213 80.4865 30.2373 82.4705 29.384C84.4545 28.5307 86.5878 28.104 88.8705 28.104C90.9825 28.104 92.8705 28.5733 94.5345 29.512C96.2198 30.4507 97.6492 31.6453 98.8225 33.096L98.4705 29ZM89.3505 54.312C91.0145 54.312 92.4865 53.896 93.7665 53.064C95.0465 52.232 96.0492 51.112 96.7745 49.704C97.4998 48.2747 97.8625 46.7067 97.8625 45C97.8625 43.272 97.4998 41.704 96.7745 40.296C96.0492 38.8667 95.0358 37.736 93.7345 36.904C92.4545 36.072 90.9932 35.656 89.3505 35.656C87.7078 35.656 86.2038 36.0827 84.8385 36.936C83.4945 37.768 82.4172 38.888 81.6065 40.296C80.8172 41.704 80.4225 43.272 80.4225 45C80.4225 46.728 80.8278 48.296 81.6385 49.704C82.4492 51.112 83.5265 52.232 84.8705 53.064C86.2358 53.896 87.7292 54.312 89.3505 54.312ZM127.247 36.808H121.039V61H113.231V36.808H108.495V29H113.231V18.952H121.039V29H127.247V36.808Z" fill="#FEC700"/>
</svg>
