<svg width="150" height="86" viewBox="0 0 150 86" fill="none" xmlns="http://www.w3.org/2000/svg">
<path d="M18.0908 69.5366L9.77896 25.5144L17.4514 24.0658L24.3146 60.4155L42.6467 56.9542L44.0954 64.6266L18.0908 69.5366Z" fill="black"/>
<path d="M41.92 64.832C38.976 64.832 36.288 64.0747 33.856 62.56C31.4453 61.0453 29.5147 59.0187 28.064 56.48C26.6347 53.92 25.92 51.0933 25.92 48C25.92 45.6533 26.336 43.4667 27.168 41.44C28 39.392 29.1413 37.6 30.592 36.064C32.064 34.5067 33.7707 33.2907 35.712 32.416C37.6533 31.5413 39.7227 31.104 41.92 31.104C44.864 31.104 47.5413 31.8613 49.952 33.376C52.384 34.8907 54.3147 36.928 55.744 39.488C57.1947 42.048 57.92 44.8853 57.92 48C57.92 50.3253 57.504 52.5013 56.672 54.528C55.84 56.5547 54.688 58.3467 53.216 59.904C51.7653 61.44 50.0693 62.6453 48.128 63.52C46.208 64.3947 44.1387 64.832 41.92 64.832ZM41.92 57.024C43.4773 57.024 44.8747 56.608 46.112 55.776C47.3493 54.944 48.32 53.8453 49.024 52.48C49.7493 51.1147 50.112 49.6213 50.112 48C50.112 46.336 49.7387 44.8213 48.992 43.456C48.2667 42.0693 47.2747 40.9707 46.016 40.16C44.7787 39.328 43.4133 38.912 41.92 38.912C40.384 38.912 38.9973 39.328 37.76 40.16C36.5227 40.992 35.5413 42.1013 34.816 43.488C34.0907 44.8747 33.728 46.3787 33.728 48C33.728 49.6853 34.1013 51.2107 34.848 52.576C35.5947 53.9413 36.5867 55.0293 37.824 55.84C39.0827 56.6293 40.448 57.024 41.92 57.024ZM86.7715 32H94.5795V64.608C94.5795 66.912 94.1102 69.0027 93.1715 70.88C92.2328 72.7787 90.9528 74.4 89.3315 75.744C87.7102 77.1093 85.8542 78.1547 83.7635 78.88C81.6728 79.6267 79.4755 80 77.1715 80C74.9315 80 72.7768 79.5413 70.7075 78.624C68.6382 77.7067 66.8035 76.448 65.2035 74.848C63.6248 73.2693 62.4195 71.4667 61.5875 69.44L68.7235 66.208C69.1502 67.3813 69.7902 68.4053 70.6435 69.28C71.5182 70.176 72.5208 70.8693 73.6515 71.36C74.7822 71.872 75.9555 72.128 77.1715 72.128C78.4088 72.128 79.5928 71.9573 80.7235 71.616C81.8755 71.2747 82.9102 70.7733 83.8275 70.112C84.7448 69.472 85.4595 68.6827 85.9715 67.744C86.5048 66.8267 86.7715 65.7813 86.7715 64.608V60.096C85.7688 61.504 84.5102 62.6453 82.9955 63.52C81.4808 64.3947 79.7315 64.832 77.7475 64.832C75.4435 64.832 73.2888 64.3947 71.2835 63.52C69.2782 62.6453 67.5075 61.44 65.9715 59.904C64.4568 58.3467 63.2622 56.5547 62.3875 54.528C61.5342 52.5013 61.1075 50.3253 61.1075 48C61.1075 45.6747 61.5342 43.4987 62.3875 41.472C63.2622 39.4453 64.4568 37.664 65.9715 36.128C67.5075 34.5707 69.2782 33.3547 71.2835 32.48C73.2888 31.6053 75.4435 31.168 77.7475 31.168C79.7315 31.168 81.4808 31.6053 82.9955 32.48C84.5102 33.3333 85.7688 34.464 86.7715 35.872V32ZM77.8435 57.312C79.4862 57.312 80.9368 56.896 82.1955 56.064C83.4755 55.2107 84.4782 54.08 85.2035 52.672C85.9288 51.2427 86.2915 49.6853 86.2915 48C86.2915 46.2933 85.9182 44.736 85.1715 43.328C84.4462 41.92 83.4435 40.7893 82.1635 39.936C80.9048 39.0827 79.4648 38.656 77.8435 38.656C76.2435 38.656 74.7822 39.0827 73.4595 39.936C72.1368 40.768 71.0808 41.888 70.2915 43.296C69.5022 44.704 69.1075 46.272 69.1075 48C69.1075 49.728 69.5022 51.296 70.2915 52.704C71.0808 54.112 72.1368 55.232 73.4595 56.064C74.7822 56.896 76.2435 57.312 77.8435 57.312ZM101.528 32H109.336V64H101.528V32ZM105.496 27.872C104.344 27.872 103.373 27.4987 102.584 26.752C101.794 25.984 101.4 25.024 101.4 23.872C101.4 22.7413 101.794 21.792 102.584 21.024C103.373 20.256 104.333 19.872 105.464 19.872C106.594 19.872 107.544 20.256 108.312 21.024C109.101 21.792 109.496 22.7413 109.496 23.872C109.496 25.024 109.112 25.984 108.344 26.752C107.576 27.4987 106.626 27.872 105.496 27.872ZM146.09 43.776V64H138.282V45.824C138.282 44.5653 137.972 43.424 137.354 42.4C136.735 41.3547 135.903 40.5333 134.858 39.936C133.834 39.3173 132.692 39.008 131.434 39.008C130.175 39.008 129.023 39.3173 127.978 39.936C126.954 40.5333 126.132 41.3547 125.514 42.4C124.916 43.424 124.618 44.5653 124.618 45.824V64H116.81L116.778 32H124.586L124.618 34.848C125.706 33.696 127.007 32.7893 128.522 32.128C130.036 31.4453 131.668 31.104 133.418 31.104C135.743 31.104 137.866 31.68 139.786 32.832C141.706 33.9627 143.231 35.488 144.362 37.408C145.514 39.3067 146.09 41.4293 146.09 43.776Z" fill="black"/>
<path d="M15.0908 66.5366L6.77896 22.5144L14.4514 21.0658L21.3146 57.4155L39.6467 53.9542L41.0954 61.6266L15.0908 66.5366Z" fill="#FEC700"/>
<path d="M38.92 61.832C35.976 61.832 33.288 61.0747 30.856 59.56C28.4453 58.0453 26.5147 56.0187 25.064 53.48C23.6347 50.92 22.92 48.0933 22.92 45C22.92 42.6533 23.336 40.4667 24.168 38.44C25 36.392 26.1413 34.6 27.592 33.064C29.064 31.5067 30.7707 30.2907 32.712 29.416C34.6533 28.5413 36.7227 28.104 38.92 28.104C41.864 28.104 44.5413 28.8613 46.952 30.376C49.384 31.8907 51.3147 33.928 52.744 36.488C54.1947 39.048 54.92 41.8853 54.92 45C54.92 47.3253 54.504 49.5013 53.672 51.528C52.84 53.5547 51.688 55.3467 50.216 56.904C48.7653 58.44 47.0693 59.6453 45.128 60.52C43.208 61.3947 41.1387 61.832 38.92 61.832ZM38.92 54.024C40.4773 54.024 41.8747 53.608 43.112 52.776C44.3493 51.944 45.32 50.8453 46.024 49.48C46.7493 48.1147 47.112 46.6213 47.112 45C47.112 43.336 46.7387 41.8213 45.992 40.456C45.2667 39.0693 44.2747 37.9707 43.016 37.16C41.7787 36.328 40.4133 35.912 38.92 35.912C37.384 35.912 35.9973 36.328 34.76 37.16C33.5227 37.992 32.5413 39.1013 31.816 40.488C31.0907 41.8747 30.728 43.3787 30.728 45C30.728 46.6853 31.1013 48.2107 31.848 49.576C32.5947 50.9413 33.5867 52.0293 34.824 52.84C36.0827 53.6293 37.448 54.024 38.92 54.024ZM83.7715 29H91.5795V61.608C91.5795 63.912 91.1102 66.0027 90.1715 67.88C89.2328 69.7787 87.9528 71.4 86.3315 72.744C84.7102 74.1093 82.8542 75.1547 80.7635 75.88C78.6728 76.6267 76.4755 77 74.1715 77C71.9315 77 69.7768 76.5413 67.7075 75.624C65.6382 74.7067 63.8035 73.448 62.2035 71.848C60.6248 70.2693 59.4195 68.4667 58.5875 66.44L65.7235 63.208C66.1502 64.3813 66.7902 65.4053 67.6435 66.28C68.5182 67.176 69.5208 67.8693 70.6515 68.36C71.7822 68.872 72.9555 69.128 74.1715 69.128C75.4088 69.128 76.5928 68.9573 77.7235 68.616C78.8755 68.2747 79.9102 67.7733 80.8275 67.112C81.7448 66.472 82.4595 65.6827 82.9715 64.744C83.5048 63.8267 83.7715 62.7813 83.7715 61.608V57.096C82.7688 58.504 81.5102 59.6453 79.9955 60.52C78.4808 61.3947 76.7315 61.832 74.7475 61.832C72.4435 61.832 70.2888 61.3947 68.2835 60.52C66.2782 59.6453 64.5075 58.44 62.9715 56.904C61.4568 55.3467 60.2622 53.5547 59.3875 51.528C58.5342 49.5013 58.1075 47.3253 58.1075 45C58.1075 42.6747 58.5342 40.4987 59.3875 38.472C60.2622 36.4453 61.4568 34.664 62.9715 33.128C64.5075 31.5707 66.2782 30.3547 68.2835 29.48C70.2888 28.6053 72.4435 28.168 74.7475 28.168C76.7315 28.168 78.4808 28.6053 79.9955 29.48C81.5102 30.3333 82.7688 31.464 83.7715 32.872V29ZM74.8435 54.312C76.4862 54.312 77.9368 53.896 79.1955 53.064C80.4755 52.2107 81.4782 51.08 82.2035 49.672C82.9288 48.2427 83.2915 46.6853 83.2915 45C83.2915 43.2933 82.9182 41.736 82.1715 40.328C81.4462 38.92 80.4435 37.7893 79.1635 36.936C77.9048 36.0827 76.4648 35.656 74.8435 35.656C73.2435 35.656 71.7822 36.0827 70.4595 36.936C69.1368 37.768 68.0808 38.888 67.2915 40.296C66.5022 41.704 66.1075 43.272 66.1075 45C66.1075 46.728 66.5022 48.296 67.2915 49.704C68.0808 51.112 69.1368 52.232 70.4595 53.064C71.7822 53.896 73.2435 54.312 74.8435 54.312ZM98.5275 29H106.336V61H98.5275V29ZM102.496 24.872C101.344 24.872 100.373 24.4987 99.5835 23.752C98.7942 22.984 98.3995 22.024 98.3995 20.872C98.3995 19.7413 98.7942 18.792 99.5835 18.024C100.373 17.256 101.333 16.872 102.464 16.872C103.594 16.872 104.544 17.256 105.312 18.024C106.101 18.792 106.496 19.7413 106.496 20.872C106.496 22.024 106.112 22.984 105.344 23.752C104.576 24.4987 103.626 24.872 102.496 24.872ZM143.09 40.776V61H135.282V42.824C135.282 41.5653 134.972 40.424 134.354 39.4C133.735 38.3547 132.903 37.5333 131.858 36.936C130.834 36.3173 129.692 36.008 128.434 36.008C127.175 36.008 126.023 36.3173 124.978 36.936C123.954 37.5333 123.132 38.3547 122.514 39.4C121.916 40.424 121.618 41.5653 121.618 42.824V61H113.81L113.778 29H121.586L121.618 31.848C122.706 30.696 124.007 29.7893 125.522 29.128C127.036 28.4453 128.668 28.104 130.418 28.104C132.743 28.104 134.866 28.68 136.786 29.832C138.706 30.9627 140.231 32.488 141.362 34.408C142.514 36.3067 143.09 38.4293 143.09 40.776Z" fill="#FEC700"/>
</svg>
