<svg width="227" height="90" viewBox="0 0 227 90" fill="none" xmlns="http://www.w3.org/2000/svg">
<path d="M75.968 36H83.776V68H75.968L75.616 64.032C74.7413 65.4613 73.5787 66.624 72.128 67.52C70.6987 68.3947 69.0027 68.832 67.04 68.832C64.672 68.832 62.4533 68.384 60.384 67.488C58.3147 66.592 56.4907 65.3547 54.912 63.776C53.3547 62.1973 52.128 60.3733 51.232 58.304C50.3573 56.2347 49.92 54.016 49.92 51.648C49.92 49.3653 50.336 47.2213 51.168 45.216C52.0213 43.2107 53.2053 41.4507 54.72 39.936C56.2347 38.4213 57.984 37.2373 59.968 36.384C61.952 35.5307 64.0853 35.104 66.368 35.104C68.48 35.104 70.368 35.5733 72.032 36.512C73.7173 37.4507 75.1467 38.6453 76.32 40.096L75.968 36ZM66.848 61.312C68.512 61.312 69.984 60.896 71.264 60.064C72.544 59.232 73.5467 58.112 74.272 56.704C74.9973 55.2747 75.36 53.7067 75.36 52C75.36 50.272 74.9973 48.704 74.272 47.296C73.5467 45.8667 72.5333 44.736 71.232 43.904C69.952 43.072 68.4907 42.656 66.848 42.656C65.2053 42.656 63.7013 43.0827 62.336 43.936C60.992 44.768 59.9147 45.888 59.104 47.296C58.3147 48.704 57.92 50.272 57.92 52C57.92 53.728 58.3253 55.296 59.136 56.704C59.9467 58.112 61.024 59.232 62.368 60.064C63.7333 60.896 65.2267 61.312 66.848 61.312ZM119.465 47.776V68H111.657V49.824C111.657 48.5653 111.347 47.424 110.729 46.4C110.11 45.3547 109.278 44.5333 108.233 43.936C107.209 43.3173 106.067 43.008 104.809 43.008C103.55 43.008 102.398 43.3173 101.353 43.936C100.329 44.5333 99.5072 45.3547 98.8885 46.4C98.2912 47.424 97.9925 48.5653 97.9925 49.824V68H90.1845L90.1525 36H97.9605L97.9925 38.848C99.0805 37.696 100.382 36.7893 101.897 36.128C103.411 35.4453 105.043 35.104 106.793 35.104C109.118 35.104 111.241 35.68 113.161 36.832C115.081 37.9627 116.606 39.488 117.737 41.408C118.889 43.3067 119.465 45.4293 119.465 47.776ZM149.407 20H157.215V68H149.407V64C148.383 65.4293 147.092 66.592 145.535 67.488C143.978 68.384 142.175 68.832 140.127 68.832C137.802 68.832 135.626 68.3947 133.599 67.52C131.572 66.6453 129.78 65.44 128.223 63.904C126.687 62.3467 125.482 60.5547 124.607 58.528C123.732 56.5013 123.295 54.3253 123.295 52C123.295 49.6747 123.732 47.4987 124.607 45.472C125.482 43.4453 126.687 41.664 128.223 40.128C129.78 38.5707 131.572 37.3547 133.599 36.48C135.626 35.6053 137.802 35.168 140.127 35.168C142.175 35.168 143.978 35.616 145.535 36.512C147.092 37.3867 148.383 38.5493 149.407 40V20ZM140.223 61.312C141.887 61.312 143.359 60.896 144.639 60.064C145.919 59.232 146.922 58.112 147.647 56.704C148.372 55.2747 148.735 53.7067 148.735 52C148.735 50.272 148.372 48.704 147.647 47.296C146.922 45.8667 145.908 44.736 144.607 43.904C143.327 43.072 141.866 42.656 140.223 42.656C138.58 42.656 137.076 43.0827 135.711 43.936C134.367 44.768 133.29 45.888 132.479 47.296C131.69 48.704 131.295 50.272 131.295 52C131.295 53.728 131.7 55.296 132.511 56.704C133.322 58.112 134.399 59.232 135.743 60.064C137.108 60.896 138.602 61.312 140.223 61.312ZM188.531 36H196.339V68H188.531L188.179 64.032C187.304 65.4613 186.141 66.624 184.691 67.52C183.261 68.3947 181.565 68.832 179.603 68.832C177.235 68.832 175.016 68.384 172.947 67.488C170.877 66.592 169.053 65.3547 167.475 63.776C165.917 62.1973 164.691 60.3733 163.795 58.304C162.92 56.2347 162.483 54.016 162.483 51.648C162.483 49.3653 162.899 47.2213 163.731 45.216C164.584 43.2107 165.768 41.4507 167.283 39.936C168.797 38.4213 170.547 37.2373 172.531 36.384C174.515 35.5307 176.648 35.104 178.931 35.104C181.043 35.104 182.931 35.5733 184.595 36.512C186.28 37.4507 187.709 38.6453 188.883 40.096L188.531 36ZM179.411 61.312C181.075 61.312 182.547 60.896 183.827 60.064C185.107 59.232 186.109 58.112 186.835 56.704C187.56 55.2747 187.923 53.7067 187.923 52C187.923 50.272 187.56 48.704 186.835 47.296C186.109 45.8667 185.096 44.736 183.795 43.904C182.515 43.072 181.053 42.656 179.411 42.656C177.768 42.656 176.264 43.0827 174.899 43.936C173.555 44.768 172.477 45.888 171.667 47.296C170.877 48.704 170.483 50.272 170.483 52C170.483 53.728 170.888 55.296 171.699 56.704C172.509 58.112 173.587 59.232 174.931 60.064C176.296 60.896 177.789 61.312 179.411 61.312ZM212.155 68.576C210.491 68.4693 208.88 68.1387 207.323 67.584C205.787 67.008 204.422 66.2293 203.227 65.248C202.032 64.2667 201.115 63.0933 200.475 61.728L207.067 58.912C207.323 59.3387 207.739 59.7973 208.315 60.288C208.891 60.7573 209.574 61.152 210.363 61.472C211.174 61.792 212.059 61.952 213.019 61.952C213.83 61.952 214.598 61.8453 215.323 61.632C216.07 61.3973 216.667 61.0453 217.115 60.576C217.584 60.1067 217.819 59.4987 217.819 58.752C217.819 57.9627 217.542 57.3547 216.987 56.928C216.454 56.48 215.771 56.1493 214.939 55.936C214.128 55.7013 213.339 55.488 212.571 55.296C210.544 54.8907 208.656 54.2613 206.907 53.408C205.179 52.5547 203.782 51.456 202.715 50.112C201.67 48.7467 201.147 47.104 201.147 45.184C201.147 43.072 201.702 41.248 202.811 39.712C203.942 38.176 205.403 36.992 207.195 36.16C209.008 35.328 210.96 34.912 213.051 34.912C215.59 34.912 217.915 35.4453 220.027 36.512C222.16 37.5573 223.846 39.04 225.083 40.96L218.907 44.608C218.608 44.096 218.192 43.6267 217.659 43.2C217.126 42.752 216.518 42.3893 215.835 42.112C215.152 41.8133 214.438 41.6427 213.691 41.6C212.731 41.5573 211.856 41.6427 211.067 41.856C210.278 42.0693 209.638 42.432 209.147 42.944C208.678 43.456 208.443 44.1387 208.443 44.992C208.443 45.8027 208.763 46.4107 209.403 46.816C210.043 47.2 210.811 47.4987 211.707 47.712C212.624 47.9253 213.499 48.16 214.331 48.416C216.208 49.0347 217.968 49.792 219.611 50.688C221.275 51.584 222.608 52.6827 223.611 53.984C224.614 55.2853 225.094 56.8427 225.051 58.656C225.051 60.7253 224.432 62.5387 223.195 64.096C221.958 65.632 220.358 66.8053 218.395 67.616C216.454 68.4267 214.374 68.7467 212.155 68.576Z" fill="black"/>
<path d="M14.6974 78.3247L7.5266 75.2353L26.5194 31.1527L33.6901 34.2421L32.0821 37.9745C33.6161 37.0558 35.2559 36.4847 37.0015 36.2612C38.7751 36.0265 40.6023 36.3143 42.4832 37.1247C44.6383 38.0532 46.4735 39.3201 47.9887 40.9253C49.5039 42.5304 50.6587 44.3521 51.4531 46.3901C52.2756 48.4169 52.6777 50.5298 52.6595 52.7287C52.6608 54.9361 52.2015 57.1075 51.2814 59.2431C50.3613 61.3786 49.0944 63.2138 47.4808 64.7486C45.8867 66.2918 44.0665 67.4704 42.02 68.2844C40.0016 69.0873 37.8887 69.4894 35.6814 69.4908C33.474 69.4921 31.2928 69.0286 29.1376 68.1C27.2568 67.2897 25.7883 66.1692 24.7322 64.7385C23.7041 63.2967 22.997 61.7029 22.611 59.957L14.6974 78.3247ZM39.4195 43.9929C37.9305 43.3514 36.4294 43.1693 34.9162 43.4465C33.4115 43.7041 32.0475 44.3359 30.8242 45.342C29.6009 46.3481 28.6517 47.6349 27.9764 49.2022C27.3011 50.7696 27.0137 52.3532 27.1143 53.9528C27.2233 55.5329 27.6967 56.9681 28.5346 58.2582C29.381 59.5288 30.5486 60.4848 32.0376 61.1264C33.5462 61.7764 35.0921 61.9894 36.6752 61.7655C38.2583 61.5417 39.7007 60.9436 41.0023 59.9713C42.3124 58.9794 43.3093 57.6899 43.993 56.1029C44.6683 54.5356 44.9123 52.9449 44.7249 51.3311C44.5375 49.7172 43.9815 48.2581 43.0568 46.9538C42.1601 45.6383 40.9477 44.6514 39.4195 43.9929Z" fill="black"/>
<path d="M71.968 33H79.776V65H71.968L71.616 61.032C70.7413 62.4613 69.5787 63.624 68.128 64.52C66.6987 65.3947 65.0027 65.832 63.04 65.832C60.672 65.832 58.4533 65.384 56.384 64.488C54.3147 63.592 52.4907 62.3547 50.912 60.776C49.3547 59.1973 48.128 57.3733 47.232 55.304C46.3573 53.2347 45.92 51.016 45.92 48.648C45.92 46.3653 46.336 44.2213 47.168 42.216C48.0213 40.2107 49.2053 38.4507 50.72 36.936C52.2347 35.4213 53.984 34.2373 55.968 33.384C57.952 32.5307 60.0853 32.104 62.368 32.104C64.48 32.104 66.368 32.5733 68.032 33.512C69.7173 34.4507 71.1467 35.6453 72.32 37.096L71.968 33ZM62.848 58.312C64.512 58.312 65.984 57.896 67.264 57.064C68.544 56.232 69.5467 55.112 70.272 53.704C70.9973 52.2747 71.36 50.7067 71.36 49C71.36 47.272 70.9973 45.704 70.272 44.296C69.5467 42.8667 68.5333 41.736 67.232 40.904C65.952 40.072 64.4907 39.656 62.848 39.656C61.2053 39.656 59.7013 40.0827 58.336 40.936C56.992 41.768 55.9147 42.888 55.104 44.296C54.3147 45.704 53.92 47.272 53.92 49C53.92 50.728 54.3253 52.296 55.136 53.704C55.9467 55.112 57.024 56.232 58.368 57.064C59.7333 57.896 61.2267 58.312 62.848 58.312ZM115.465 44.776V65H107.657V46.824C107.657 45.5653 107.347 44.424 106.729 43.4C106.11 42.3547 105.278 41.5333 104.233 40.936C103.209 40.3173 102.067 40.008 100.809 40.008C99.5498 40.008 98.3978 40.3173 97.3525 40.936C96.3285 41.5333 95.5072 42.3547 94.8885 43.4C94.2912 44.424 93.9925 45.5653 93.9925 46.824V65H86.1845L86.1525 33H93.9605L93.9925 35.848C95.0805 34.696 96.3818 33.7893 97.8965 33.128C99.4112 32.4453 101.043 32.104 102.793 32.104C105.118 32.104 107.241 32.68 109.161 33.832C111.081 34.9627 112.606 36.488 113.737 38.408C114.889 40.3067 115.465 42.4293 115.465 44.776ZM145.407 17H153.215V65H145.407V61C144.383 62.4293 143.092 63.592 141.535 64.488C139.978 65.384 138.175 65.832 136.127 65.832C133.802 65.832 131.626 65.3947 129.599 64.52C127.572 63.6453 125.78 62.44 124.223 60.904C122.687 59.3467 121.482 57.5547 120.607 55.528C119.732 53.5013 119.295 51.3253 119.295 49C119.295 46.6747 119.732 44.4987 120.607 42.472C121.482 40.4453 122.687 38.664 124.223 37.128C125.78 35.5707 127.572 34.3547 129.599 33.48C131.626 32.6053 133.802 32.168 136.127 32.168C138.175 32.168 139.978 32.616 141.535 33.512C143.092 34.3867 144.383 35.5493 145.407 37V17ZM136.223 58.312C137.887 58.312 139.359 57.896 140.639 57.064C141.919 56.232 142.922 55.112 143.647 53.704C144.372 52.2747 144.735 50.7067 144.735 49C144.735 47.272 144.372 45.704 143.647 44.296C142.922 42.8667 141.908 41.736 140.607 40.904C139.327 40.072 137.866 39.656 136.223 39.656C134.58 39.656 133.076 40.0827 131.711 40.936C130.367 41.768 129.29 42.888 128.479 44.296C127.69 45.704 127.295 47.272 127.295 49C127.295 50.728 127.7 52.296 128.511 53.704C129.322 55.112 130.399 56.232 131.743 57.064C133.108 57.896 134.602 58.312 136.223 58.312ZM184.531 33H192.339V65H184.531L184.179 61.032C183.304 62.4613 182.141 63.624 180.691 64.52C179.261 65.3947 177.565 65.832 175.603 65.832C173.235 65.832 171.016 65.384 168.947 64.488C166.877 63.592 165.053 62.3547 163.475 60.776C161.917 59.1973 160.691 57.3733 159.795 55.304C158.92 53.2347 158.483 51.016 158.483 48.648C158.483 46.3653 158.899 44.2213 159.731 42.216C160.584 40.2107 161.768 38.4507 163.283 36.936C164.797 35.4213 166.547 34.2373 168.531 33.384C170.515 32.5307 172.648 32.104 174.931 32.104C177.043 32.104 178.931 32.5733 180.595 33.512C182.28 34.4507 183.709 35.6453 184.883 37.096L184.531 33ZM175.411 58.312C177.075 58.312 178.547 57.896 179.827 57.064C181.107 56.232 182.109 55.112 182.835 53.704C183.56 52.2747 183.923 50.7067 183.923 49C183.923 47.272 183.56 45.704 182.835 44.296C182.109 42.8667 181.096 41.736 179.795 40.904C178.515 40.072 177.053 39.656 175.411 39.656C173.768 39.656 172.264 40.0827 170.899 40.936C169.555 41.768 168.477 42.888 167.667 44.296C166.877 45.704 166.483 47.272 166.483 49C166.483 50.728 166.888 52.296 167.699 53.704C168.509 55.112 169.587 56.232 170.931 57.064C172.296 57.896 173.789 58.312 175.411 58.312ZM208.155 65.576C206.491 65.4693 204.88 65.1387 203.323 64.584C201.787 64.008 200.422 63.2293 199.227 62.248C198.032 61.2667 197.115 60.0933 196.475 58.728L203.067 55.912C203.323 56.3387 203.739 56.7973 204.315 57.288C204.891 57.7573 205.574 58.152 206.363 58.472C207.174 58.792 208.059 58.952 209.019 58.952C209.83 58.952 210.598 58.8453 211.323 58.632C212.07 58.3973 212.667 58.0453 213.115 57.576C213.584 57.1067 213.819 56.4987 213.819 55.752C213.819 54.9627 213.542 54.3547 212.987 53.928C212.454 53.48 211.771 53.1493 210.939 52.936C210.128 52.7013 209.339 52.488 208.571 52.296C206.544 51.8907 204.656 51.2613 202.907 50.408C201.179 49.5547 199.782 48.456 198.715 47.112C197.67 45.7467 197.147 44.104 197.147 42.184C197.147 40.072 197.702 38.248 198.811 36.712C199.942 35.176 201.403 33.992 203.195 33.16C205.008 32.328 206.96 31.912 209.051 31.912C211.59 31.912 213.915 32.4453 216.027 33.512C218.16 34.5573 219.846 36.04 221.083 37.96L214.907 41.608C214.608 41.096 214.192 40.6267 213.659 40.2C213.126 39.752 212.518 39.3893 211.835 39.112C211.152 38.8133 210.438 38.6427 209.691 38.6C208.731 38.5573 207.856 38.6427 207.067 38.856C206.278 39.0693 205.638 39.432 205.147 39.944C204.678 40.456 204.443 41.1387 204.443 41.992C204.443 42.8027 204.763 43.4107 205.403 43.816C206.043 44.2 206.811 44.4987 207.707 44.712C208.624 44.9253 209.499 45.16 210.331 45.416C212.208 46.0347 213.968 46.792 215.611 47.688C217.275 48.584 218.608 49.6827 219.611 50.984C220.614 52.2853 221.094 53.8427 221.051 55.656C221.051 57.7253 220.432 59.5387 219.195 61.096C217.958 62.632 216.358 63.8053 214.395 64.616C212.454 65.4267 210.374 65.7467 208.155 65.576Z" fill="#FEC700"/>
<path d="M10.6974 75.3247L3.5266 72.2353L22.5194 28.1527L29.6901 31.2421L28.0821 34.9745C29.6161 34.0558 31.2559 33.4847 33.0015 33.2612C34.7751 33.0265 36.6023 33.3143 38.4832 34.1247C40.6383 35.0532 42.4735 36.3201 43.9887 37.9253C45.5039 39.5304 46.6587 41.3521 47.4531 43.3901C48.2756 45.4169 48.6777 47.5298 48.6595 49.7287C48.6608 51.9361 48.2015 54.1075 47.2814 56.2431C46.3613 58.3786 45.0944 60.2138 43.4808 61.7486C41.8867 63.2918 40.0665 64.4704 38.02 65.2844C36.0016 66.0873 33.8887 66.4894 31.6814 66.4908C29.474 66.4921 27.2928 66.0286 25.1376 65.1C23.2568 64.2897 21.7883 63.1692 20.7322 61.7385C19.7041 60.2967 18.997 58.7029 18.611 56.957L10.6974 75.3247ZM35.4195 40.9929C33.9305 40.3514 32.4294 40.1693 30.9162 40.4465C29.4115 40.7041 28.0475 41.3359 26.8242 42.342C25.6009 43.3481 24.6517 44.6349 23.9764 46.2022C23.3011 47.7696 23.0137 49.3532 23.1143 50.9528C23.2233 52.5329 23.6967 53.9681 24.5346 55.2582C25.381 56.5288 26.5486 57.4848 28.0376 58.1264C29.5462 58.7764 31.0921 58.9894 32.6752 58.7655C34.2583 58.5417 35.7007 57.9436 37.0023 56.9713C38.3124 55.9794 39.3093 54.6899 39.993 53.1029C40.6683 51.5356 40.9123 49.9449 40.7249 48.3311C40.5375 46.7172 39.9815 45.2581 39.0568 43.9538C38.1601 42.6383 36.9477 41.6514 35.4195 40.9929Z" fill="#FEC700"/>
</svg>
