<svg width="172" height="80" viewBox="0 0 172 80" fill="none" xmlns="http://www.w3.org/2000/svg">
<path d="M27.304 74.2923L12.1075 32.1484L27.1589 26.7211C29.4467 25.8962 31.72 25.7228 33.9788 26.2009C36.2576 26.6718 38.2862 27.6752 40.0646 29.211C41.843 30.7468 43.1483 32.6687 43.9805 34.9766C44.8344 37.3446 45.0468 39.6946 44.6176 42.0264C44.2013 44.3309 43.2662 46.3916 41.8123 48.2085C40.3512 50.0053 38.5169 51.3017 36.3093 52.0978L28.603 54.8765L34.649 71.6438L27.304 74.2923ZM25.9545 47.5315L32.8781 45.0349C33.9217 44.6586 34.7809 44.054 35.4557 43.221C36.1305 42.3881 36.5595 41.4397 36.7428 40.3757C36.9462 39.3046 36.8525 38.2271 36.4618 37.1434C36.0638 36.0397 35.4447 35.1403 34.6045 34.4455C33.7844 33.7434 32.8488 33.287 31.7977 33.0764C30.7466 32.8658 29.6992 32.9486 28.6557 33.3249L21.732 35.8215L25.9545 47.5315Z" fill="black"/>
<path d="M24.304 71.2923L9.10749 29.1484L24.1589 23.7211C26.4467 22.8962 28.72 22.7228 30.9788 23.2009C33.2576 23.6718 35.2862 24.6752 37.0646 26.211C38.843 27.7468 40.1483 29.6687 40.9805 31.9766C41.8344 34.3446 42.0468 36.6946 41.6176 39.0264C41.2013 41.3309 40.2662 43.3916 38.8123 45.2085C37.3512 47.0053 35.5169 48.3017 33.3093 49.0978L25.603 51.8765L31.649 68.6438L24.304 71.2923ZM22.9545 44.5315L29.8781 42.0349C30.9217 41.6586 31.7809 41.054 32.4557 40.221C33.1305 39.3881 33.5595 38.4397 33.7428 37.3757C33.9462 36.3046 33.8525 35.2271 33.4618 34.1434C33.0638 33.0397 32.4447 32.1403 31.6045 31.4455C30.7844 30.7434 29.8488 30.287 28.7977 30.0764C27.7466 29.8658 26.6992 29.9486 25.6557 30.3249L18.732 32.8215L22.9545 44.5315Z" fill="#FEC700"/>
<path d="M40.872 64L40.84 32H48.648L48.68 34.848C49.768 33.696 51.0693 32.7893 52.584 32.128C54.0987 31.4453 55.7307 31.104 57.48 31.104C58.6533 31.104 59.8267 31.2747 61 31.616L57.928 39.488C57.1173 39.168 56.3067 39.008 55.496 39.008C54.2373 39.008 53.0853 39.3173 52.04 39.936C51.016 40.5333 50.1947 41.3547 49.576 42.4C48.9787 43.424 48.68 44.5653 48.68 45.824V64H40.872ZM74.61 64.832C71.666 64.832 68.978 64.0747 66.546 62.56C64.1353 61.0453 62.2047 59.0187 60.754 56.48C59.3247 53.92 58.61 51.0933 58.61 48C58.61 45.6533 59.026 43.4667 59.858 41.44C60.69 39.392 61.8313 37.6 63.282 36.064C64.754 34.5067 66.4607 33.2907 68.402 32.416C70.3433 31.5413 72.4127 31.104 74.61 31.104C77.554 31.104 80.2313 31.8613 82.642 33.376C85.074 34.8907 87.0047 36.928 88.434 39.488C89.8847 42.048 90.61 44.8853 90.61 48C90.61 50.3253 90.194 52.5013 89.362 54.528C88.53 56.5547 87.378 58.3467 85.906 59.904C84.4553 61.44 82.7593 62.6453 80.818 63.52C78.898 64.3947 76.8287 64.832 74.61 64.832ZM74.61 57.024C76.1673 57.024 77.5647 56.608 78.802 55.776C80.0393 54.944 81.01 53.8453 81.714 52.48C82.4393 51.1147 82.802 49.6213 82.802 48C82.802 46.336 82.4287 44.8213 81.682 43.456C80.9567 42.0693 79.9647 40.9707 78.706 40.16C77.4687 39.328 76.1033 38.912 74.61 38.912C73.074 38.912 71.6873 39.328 70.45 40.16C69.2127 40.992 68.2313 42.1013 67.506 43.488C66.7807 44.8747 66.418 46.3787 66.418 48C66.418 49.6853 66.7913 51.2107 67.538 52.576C68.2847 53.9413 69.2767 55.0293 70.514 55.84C71.7727 56.6293 73.138 57.024 74.61 57.024ZM102.839 25.28V32H111.575V39.808H102.839V64H95.0305V39.808H91.5425V32H95.0305V25.28C95.0305 23.4453 95.4785 21.7707 96.3745 20.256C97.2918 18.72 98.5185 17.504 100.055 16.608C101.591 15.6907 103.287 15.232 105.143 15.232C106.487 15.232 107.82 15.5093 109.143 16.064C110.465 16.6187 111.639 17.472 112.663 18.624L107.031 24.128C106.839 23.7653 106.561 23.4987 106.199 23.328C105.857 23.136 105.505 23.04 105.143 23.04C104.524 23.04 103.98 23.264 103.511 23.712C103.063 24.1387 102.839 24.6613 102.839 25.28ZM114.035 32H121.843V64H114.035V32ZM118.003 27.872C116.851 27.872 115.88 27.4987 115.091 26.752C114.302 25.984 113.907 25.024 113.907 23.872C113.907 22.7413 114.302 21.792 115.091 21.024C115.88 20.256 116.84 19.872 117.971 19.872C119.102 19.872 120.051 20.256 120.819 21.024C121.608 21.792 122.003 22.7413 122.003 23.872C122.003 25.024 121.619 25.984 120.851 26.752C120.083 27.4987 119.134 27.872 118.003 27.872ZM127.1 64V16H134.908V64H127.1ZM153.62 64.832C150.676 64.832 147.988 64.0747 145.556 62.56C143.145 61.0453 141.215 59.008 139.764 56.448C138.335 53.888 137.62 51.0613 137.62 47.968C137.62 45.6427 138.036 43.4667 138.868 41.44C139.7 39.392 140.841 37.6 142.292 36.064C143.764 34.5067 145.471 33.2907 147.412 32.416C149.353 31.5413 151.423 31.104 153.62 31.104C156.116 31.104 158.399 31.6373 160.468 32.704C162.559 33.7493 164.329 35.1893 165.78 37.024C167.231 38.8587 168.287 40.9493 168.948 43.296C169.609 45.6427 169.759 48.096 169.396 50.656H146.004C146.303 51.8507 146.793 52.928 147.476 53.888C148.159 54.8267 149.023 55.584 150.068 56.16C151.113 56.7147 152.297 57.0027 153.62 57.024C154.985 57.0453 156.223 56.7253 157.332 56.064C158.463 55.3813 159.401 54.464 160.148 53.312L168.116 55.168C166.815 58.0053 164.873 60.3307 162.292 62.144C159.711 63.936 156.82 64.832 153.62 64.832ZM145.748 44.8H161.492C161.257 43.52 160.756 42.368 159.988 41.344C159.241 40.2987 158.313 39.4667 157.204 38.848C156.095 38.2293 154.9 37.92 153.62 37.92C152.34 37.92 151.156 38.2293 150.068 38.848C148.98 39.4453 148.052 40.2667 147.284 41.312C146.537 42.336 146.025 43.4987 145.748 44.8Z" fill="black"/>
<path d="M38.872 61L38.84 29H46.648L46.68 31.848C47.768 30.696 49.0693 29.7893 50.584 29.128C52.0987 28.4453 53.7307 28.104 55.48 28.104C56.6533 28.104 57.8267 28.2747 59 28.616L55.928 36.488C55.1173 36.168 54.3067 36.008 53.496 36.008C52.2373 36.008 51.0853 36.3173 50.04 36.936C49.016 37.5333 48.1947 38.3547 47.576 39.4C46.9787 40.424 46.68 41.5653 46.68 42.824V61H38.872ZM72.61 61.832C69.666 61.832 66.978 61.0747 64.546 59.56C62.1353 58.0453 60.2047 56.0187 58.754 53.48C57.3247 50.92 56.61 48.0933 56.61 45C56.61 42.6533 57.026 40.4667 57.858 38.44C58.69 36.392 59.8313 34.6 61.282 33.064C62.754 31.5067 64.4607 30.2907 66.402 29.416C68.3433 28.5413 70.4127 28.104 72.61 28.104C75.554 28.104 78.2313 28.8613 80.642 30.376C83.074 31.8907 85.0047 33.928 86.434 36.488C87.8847 39.048 88.61 41.8853 88.61 45C88.61 47.3253 88.194 49.5013 87.362 51.528C86.53 53.5547 85.378 55.3467 83.906 56.904C82.4553 58.44 80.7593 59.6453 78.818 60.52C76.898 61.3947 74.8287 61.832 72.61 61.832ZM72.61 54.024C74.1673 54.024 75.5647 53.608 76.802 52.776C78.0393 51.944 79.01 50.8453 79.714 49.48C80.4393 48.1147 80.802 46.6213 80.802 45C80.802 43.336 80.4287 41.8213 79.682 40.456C78.9567 39.0693 77.9647 37.9707 76.706 37.16C75.4687 36.328 74.1033 35.912 72.61 35.912C71.074 35.912 69.6873 36.328 68.45 37.16C67.2127 37.992 66.2313 39.1013 65.506 40.488C64.7807 41.8747 64.418 43.3787 64.418 45C64.418 46.6853 64.7913 48.2107 65.538 49.576C66.2847 50.9413 67.2767 52.0293 68.514 52.84C69.7727 53.6293 71.138 54.024 72.61 54.024ZM100.839 22.28V29H109.575V36.808H100.839V61H93.0305V36.808H89.5425V29H93.0305V22.28C93.0305 20.4453 93.4785 18.7707 94.3745 17.256C95.2918 15.72 96.5185 14.504 98.0545 13.608C99.5905 12.6907 101.287 12.232 103.143 12.232C104.487 12.232 105.82 12.5093 107.143 13.064C108.465 13.6187 109.639 14.472 110.663 15.624L105.031 21.128C104.839 20.7653 104.561 20.4987 104.199 20.328C103.857 20.136 103.505 20.04 103.143 20.04C102.524 20.04 101.98 20.264 101.511 20.712C101.063 21.1387 100.839 21.6613 100.839 22.28ZM112.035 29H119.843V61H112.035V29ZM116.003 24.872C114.851 24.872 113.88 24.4987 113.091 23.752C112.302 22.984 111.907 22.024 111.907 20.872C111.907 19.7413 112.302 18.792 113.091 18.024C113.88 17.256 114.84 16.872 115.971 16.872C117.102 16.872 118.051 17.256 118.819 18.024C119.608 18.792 120.003 19.7413 120.003 20.872C120.003 22.024 119.619 22.984 118.851 23.752C118.083 24.4987 117.134 24.872 116.003 24.872ZM125.1 61V13H132.908V61H125.1ZM151.62 61.832C148.676 61.832 145.988 61.0747 143.556 59.56C141.145 58.0453 139.215 56.008 137.764 53.448C136.335 50.888 135.62 48.0613 135.62 44.968C135.62 42.6427 136.036 40.4667 136.868 38.44C137.7 36.392 138.841 34.6 140.292 33.064C141.764 31.5067 143.471 30.2907 145.412 29.416C147.353 28.5413 149.423 28.104 151.62 28.104C154.116 28.104 156.399 28.6373 158.468 29.704C160.559 30.7493 162.329 32.1893 163.78 34.024C165.231 35.8587 166.287 37.9493 166.948 40.296C167.609 42.6427 167.759 45.096 167.396 47.656H144.004C144.303 48.8507 144.793 49.928 145.476 50.888C146.159 51.8267 147.023 52.584 148.068 53.16C149.113 53.7147 150.297 54.0027 151.62 54.024C152.985 54.0453 154.223 53.7253 155.332 53.064C156.463 52.3813 157.401 51.464 158.148 50.312L166.116 52.168C164.815 55.0053 162.873 57.3307 160.292 59.144C157.711 60.936 154.82 61.832 151.62 61.832ZM143.748 41.8H159.492C159.257 40.52 158.756 39.368 157.988 38.344C157.241 37.2987 156.313 36.4667 155.204 35.848C154.095 35.2293 152.9 34.92 151.62 34.92C150.34 34.92 149.156 35.2293 148.068 35.848C146.98 36.4453 146.052 37.2667 145.284 38.312C144.537 39.336 144.025 40.4987 143.748 41.8Z" fill="#FEC700"/>
</svg>
