<svg width="207" height="89" viewBox="0 0 207 89" fill="none" xmlns="http://www.w3.org/2000/svg">
<path d="M41.758 67.9611C39.43 68.8005 37.0621 69.2462 34.6543 69.298C32.2593 69.3225 30.013 68.9419 27.9154 68.1562C25.8107 67.3503 24.0597 66.1108 22.6626 64.4375L28.6444 59.4231C29.2148 60.1246 30.0509 60.6508 31.1526 61.0019C32.2544 61.353 33.4997 61.5049 34.8887 61.4576C36.2777 61.4103 37.6846 61.1298 39.1095 60.616C40.5745 60.0878 41.8595 59.3749 42.9646 58.4775C44.0826 57.5528 44.8882 56.548 45.3814 55.463C45.8674 54.358 45.915 53.2636 45.5242 52.1799C45.1262 51.0762 44.3892 50.3214 43.3131 49.9157C42.2297 49.49 40.9699 49.2979 39.5336 49.3396C38.0972 49.3813 36.6569 49.5378 35.2126 49.8091C32.056 50.4258 29.12 50.6794 26.4045 50.57C23.6891 50.4606 21.3315 49.8027 19.3316 48.5962C17.3519 47.3824 15.8736 45.4209 14.8966 42.7117C13.9776 40.163 13.9069 37.6712 14.6844 35.2365C15.462 32.8017 16.853 30.6219 18.8577 28.6972C20.8623 26.7724 23.2493 25.3107 26.0188 24.3121C28.3267 23.4799 30.6845 23.0379 33.0924 22.986C35.5002 22.9342 37.7565 23.3112 39.8613 24.117C41.9862 24.9156 43.7508 26.1616 45.1551 27.8549L39.1324 32.85C38.562 32.1486 37.7259 31.6223 36.6242 31.2713C35.5224 30.9202 34.2807 30.7783 32.8989 30.8456C31.5099 30.8929 30.103 31.1735 28.6782 31.6873C27.2461 32.181 25.9747 32.9002 24.8639 33.845C23.7661 34.7625 22.9605 35.7673 22.4472 36.8595C21.9339 37.9517 21.8654 39.0196 22.2417 40.0631C22.7266 41.4077 23.4633 42.2873 24.4518 42.7019C25.4605 43.1092 26.6548 43.2455 28.0349 43.1107C29.4078 42.9558 30.9139 42.7303 32.5533 42.4339C35.5221 41.8624 38.3887 41.6678 41.1531 41.8502C43.9176 42.0326 46.337 42.7363 48.4115 43.9613C50.4788 45.1661 51.9647 47.0228 52.8693 49.5314C53.7883 52.0801 53.8727 54.5783 53.1225 57.0259C52.365 59.4534 50.9839 61.6295 48.9793 63.5543C46.9747 65.4791 44.5676 66.948 41.758 67.9611Z" fill="black"/>
<path d="M47.84 32H55.648V64H47.84V32ZM51.808 27.872C50.656 27.872 49.6853 27.4987 48.896 26.752C48.1067 25.984 47.712 25.024 47.712 23.872C47.712 22.7413 48.1067 21.792 48.896 21.024C49.6853 20.256 50.6453 19.872 51.776 19.872C52.9067 19.872 53.856 20.256 54.624 21.024C55.4133 21.792 55.808 22.7413 55.808 23.872C55.808 25.024 55.424 25.984 54.656 26.752C53.888 27.4987 52.9387 27.872 51.808 27.872ZM86.334 32H94.142V64.608C94.142 66.912 93.6727 69.0027 92.734 70.88C91.7953 72.7787 90.5153 74.4 88.894 75.744C87.2727 77.1093 85.4167 78.1547 83.326 78.88C81.2353 79.6267 79.038 80 76.734 80C74.494 80 72.3393 79.5413 70.27 78.624C68.2007 77.7067 66.366 76.448 64.766 74.848C63.1873 73.2693 61.982 71.4667 61.15 69.44L68.286 66.208C68.7127 67.3813 69.3527 68.4053 70.206 69.28C71.0807 70.176 72.0833 70.8693 73.214 71.36C74.3447 71.872 75.518 72.128 76.734 72.128C77.9713 72.128 79.1553 71.9573 80.286 71.616C81.438 71.2747 82.4727 70.7733 83.39 70.112C84.3073 69.472 85.022 68.6827 85.534 67.744C86.0673 66.8267 86.334 65.7813 86.334 64.608V60.096C85.3313 61.504 84.0727 62.6453 82.558 63.52C81.0433 64.3947 79.294 64.832 77.31 64.832C75.006 64.832 72.8513 64.3947 70.846 63.52C68.8407 62.6453 67.07 61.44 65.534 59.904C64.0193 58.3467 62.8247 56.5547 61.95 54.528C61.0967 52.5013 60.67 50.3253 60.67 48C60.67 45.6747 61.0967 43.4987 61.95 41.472C62.8247 39.4453 64.0193 37.664 65.534 36.128C67.07 34.5707 68.8407 33.3547 70.846 32.48C72.8513 31.6053 75.006 31.168 77.31 31.168C79.294 31.168 81.0433 31.6053 82.558 32.48C84.0727 33.3333 85.3313 34.464 86.334 35.872V32ZM77.406 57.312C79.0487 57.312 80.4993 56.896 81.758 56.064C83.038 55.2107 84.0407 54.08 84.766 52.672C85.4913 51.2427 85.854 49.6853 85.854 48C85.854 46.2933 85.4807 44.736 84.734 43.328C84.0087 41.92 83.006 40.7893 81.726 39.936C80.4673 39.0827 79.0273 38.656 77.406 38.656C75.806 38.656 74.3447 39.0827 73.022 39.936C71.6993 40.768 70.6433 41.888 69.854 43.296C69.0647 44.704 68.67 46.272 68.67 48C68.67 49.728 69.0647 51.296 69.854 52.704C70.6433 54.112 71.6993 55.232 73.022 56.064C74.3447 56.896 75.806 57.312 77.406 57.312ZM131.152 43.776V64H123.344V45.824C123.344 44.5653 123.035 43.424 122.416 42.4C121.797 41.3547 120.965 40.5333 119.92 39.936C118.896 39.3173 117.755 39.008 116.496 39.008C115.237 39.008 114.085 39.3173 113.04 39.936C112.016 40.5333 111.195 41.3547 110.576 42.4C109.979 43.424 109.68 44.5653 109.68 45.824V64H101.872L101.84 32H109.648L109.68 34.848C110.768 33.696 112.069 32.7893 113.584 32.128C115.099 31.4453 116.731 31.104 118.48 31.104C120.805 31.104 122.928 31.68 124.848 32.832C126.768 33.9627 128.293 35.488 129.424 37.408C130.576 39.3067 131.152 41.4293 131.152 43.776ZM136.248 52.16V32H144.056V50.112C144.056 51.3707 144.365 52.5227 144.984 53.568C145.602 54.592 146.424 55.4133 147.448 56.032C148.493 56.6293 149.634 56.928 150.872 56.928C152.152 56.928 153.304 56.6293 154.328 56.032C155.352 55.4133 156.173 54.592 156.792 53.568C157.41 52.5227 157.72 51.3707 157.72 50.112V32H165.528L165.56 64H157.752L157.72 61.088C156.61 62.24 155.298 63.1573 153.784 63.84C152.269 64.5013 150.648 64.832 148.92 64.832C146.594 64.832 144.472 64.2667 142.552 63.136C140.632 61.984 139.096 60.4587 137.944 58.56C136.813 56.64 136.248 54.5067 136.248 52.16ZM178.336 80H170.528V32H178.336V36.064C179.381 34.6133 180.661 33.44 182.176 32.544C183.712 31.6267 185.504 31.168 187.552 31.168C189.898 31.168 192.085 31.6053 194.112 32.48C196.138 33.3547 197.92 34.5707 199.456 36.128C201.013 37.664 202.218 39.4453 203.072 41.472C203.946 43.4987 204.384 45.6747 204.384 48C204.384 50.3253 203.946 52.512 203.072 54.56C202.218 56.608 201.013 58.4107 199.456 59.968C197.92 61.504 196.138 62.7093 194.112 63.584C192.085 64.4587 189.898 64.896 187.552 64.896C185.504 64.896 183.712 64.448 182.176 63.552C180.661 62.6347 179.381 61.4507 178.336 60V80ZM187.456 38.688C185.834 38.688 184.384 39.1147 183.104 39.968C181.824 40.8 180.821 41.92 180.096 43.328C179.37 44.736 179.008 46.2933 179.008 48C179.008 49.7067 179.37 51.2747 180.096 52.704C180.821 54.112 181.824 55.2427 183.104 56.096C184.384 56.928 185.834 57.344 187.456 57.344C189.098 57.344 190.602 56.928 191.968 56.096C193.333 55.264 194.421 54.144 195.232 52.736C196.042 51.3067 196.448 49.728 196.448 48C196.448 46.2933 196.042 44.736 195.232 43.328C194.421 41.92 193.333 40.8 191.968 39.968C190.624 39.1147 189.12 38.688 187.456 38.688Z" fill="black"/>
<path d="M39.758 64.9611C37.43 65.8005 35.0621 66.2462 32.6543 66.298C30.2593 66.3225 28.013 65.9419 25.9154 65.1562C23.8107 64.3503 22.0597 63.1108 20.6626 61.4375L26.6444 56.4231C27.2148 57.1246 28.0509 57.6508 29.1526 58.0019C30.2544 58.353 31.4997 58.5049 32.8887 58.4576C34.2777 58.4103 35.6846 58.1298 37.1095 57.616C38.5745 57.0878 39.8595 56.3749 40.9646 55.4775C42.0826 54.5528 42.8882 53.548 43.3814 52.463C43.8674 51.358 43.915 50.2636 43.5242 49.1799C43.1262 48.0762 42.3892 47.3214 41.3131 46.9157C40.2297 46.49 38.9699 46.2979 37.5336 46.3396C36.0972 46.3813 34.6569 46.5378 33.2126 46.8091C30.056 47.4258 27.12 47.6794 24.4045 47.57C21.6891 47.4606 19.3315 46.8027 17.3316 45.5962C15.3519 44.3824 13.8736 42.4209 12.8966 39.7117C11.9776 37.163 11.9069 34.6712 12.6844 32.2365C13.462 29.8017 14.853 27.6219 16.8577 25.6972C18.8623 23.7724 21.2493 22.3107 24.0188 21.3121C26.3267 20.4799 28.6845 20.0379 31.0924 19.986C33.5002 19.9342 35.7565 20.3112 37.8613 21.117C39.9862 21.9156 41.7508 23.1616 43.1551 24.8549L37.1324 29.85C36.562 29.1486 35.7259 28.6223 34.6242 28.2713C33.5224 27.9202 32.2807 27.7783 30.8989 27.8456C29.5099 27.8929 28.103 28.1735 26.6782 28.6873C25.2461 29.181 23.9747 29.9002 22.8639 30.845C21.7661 31.7625 20.9605 32.7673 20.4472 33.8595C19.9339 34.9517 19.8654 36.0196 20.2417 37.0631C20.7266 38.4077 21.4633 39.2873 22.4518 39.7019C23.4605 40.1092 24.6548 40.2455 26.0349 40.1107C27.4078 39.9558 28.9139 39.7303 30.5533 39.4339C33.5221 38.8624 36.3887 38.6678 39.1531 38.8502C41.9176 39.0326 44.337 39.7363 46.4115 40.9613C48.4788 42.1661 49.9647 44.0228 50.8693 46.5314C51.7883 49.0801 51.8727 51.5783 51.1225 54.0259C50.365 56.4534 48.9839 58.6295 46.9793 60.5543C44.9747 62.4791 42.5676 63.948 39.758 64.9611Z" fill="#FEC700"/>
<path d="M45.84 29H53.648V61H45.84V29ZM49.808 24.872C48.656 24.872 47.6853 24.4987 46.896 23.752C46.1067 22.984 45.712 22.024 45.712 20.872C45.712 19.7413 46.1067 18.792 46.896 18.024C47.6853 17.256 48.6453 16.872 49.776 16.872C50.9067 16.872 51.856 17.256 52.624 18.024C53.4133 18.792 53.808 19.7413 53.808 20.872C53.808 22.024 53.424 22.984 52.656 23.752C51.888 24.4987 50.9387 24.872 49.808 24.872ZM84.334 29H92.142V61.608C92.142 63.912 91.6727 66.0027 90.734 67.88C89.7953 69.7787 88.5153 71.4 86.894 72.744C85.2727 74.1093 83.4167 75.1547 81.326 75.88C79.2353 76.6267 77.038 77 74.734 77C72.494 77 70.3393 76.5413 68.27 75.624C66.2007 74.7067 64.366 73.448 62.766 71.848C61.1873 70.2693 59.982 68.4667 59.15 66.44L66.286 63.208C66.7127 64.3813 67.3527 65.4053 68.206 66.28C69.0807 67.176 70.0833 67.8693 71.214 68.36C72.3447 68.872 73.518 69.128 74.734 69.128C75.9713 69.128 77.1553 68.9573 78.286 68.616C79.438 68.2747 80.4727 67.7733 81.39 67.112C82.3073 66.472 83.022 65.6827 83.534 64.744C84.0673 63.8267 84.334 62.7813 84.334 61.608V57.096C83.3313 58.504 82.0727 59.6453 80.558 60.52C79.0433 61.3947 77.294 61.832 75.31 61.832C73.006 61.832 70.8513 61.3947 68.846 60.52C66.8407 59.6453 65.07 58.44 63.534 56.904C62.0193 55.3467 60.8247 53.5547 59.95 51.528C59.0967 49.5013 58.67 47.3253 58.67 45C58.67 42.6747 59.0967 40.4987 59.95 38.472C60.8247 36.4453 62.0193 34.664 63.534 33.128C65.07 31.5707 66.8407 30.3547 68.846 29.48C70.8513 28.6053 73.006 28.168 75.31 28.168C77.294 28.168 79.0433 28.6053 80.558 29.48C82.0727 30.3333 83.3313 31.464 84.334 32.872V29ZM75.406 54.312C77.0487 54.312 78.4993 53.896 79.758 53.064C81.038 52.2107 82.0407 51.08 82.766 49.672C83.4913 48.2427 83.854 46.6853 83.854 45C83.854 43.2933 83.4807 41.736 82.734 40.328C82.0087 38.92 81.006 37.7893 79.726 36.936C78.4673 36.0827 77.0273 35.656 75.406 35.656C73.806 35.656 72.3447 36.0827 71.022 36.936C69.6993 37.768 68.6433 38.888 67.854 40.296C67.0647 41.704 66.67 43.272 66.67 45C66.67 46.728 67.0647 48.296 67.854 49.704C68.6433 51.112 69.6993 52.232 71.022 53.064C72.3447 53.896 73.806 54.312 75.406 54.312ZM129.152 40.776V61H121.344V42.824C121.344 41.5653 121.035 40.424 120.416 39.4C119.797 38.3547 118.965 37.5333 117.92 36.936C116.896 36.3173 115.755 36.008 114.496 36.008C113.237 36.008 112.085 36.3173 111.04 36.936C110.016 37.5333 109.195 38.3547 108.576 39.4C107.979 40.424 107.68 41.5653 107.68 42.824V61H99.872L99.84 29H107.648L107.68 31.848C108.768 30.696 110.069 29.7893 111.584 29.128C113.099 28.4453 114.731 28.104 116.48 28.104C118.805 28.104 120.928 28.68 122.848 29.832C124.768 30.9627 126.293 32.488 127.424 34.408C128.576 36.3067 129.152 38.4293 129.152 40.776ZM134.248 49.16V29H142.056V47.112C142.056 48.3707 142.365 49.5227 142.984 50.568C143.602 51.592 144.424 52.4133 145.448 53.032C146.493 53.6293 147.634 53.928 148.872 53.928C150.152 53.928 151.304 53.6293 152.328 53.032C153.352 52.4133 154.173 51.592 154.792 50.568C155.41 49.5227 155.72 48.3707 155.72 47.112V29H163.528L163.56 61H155.752L155.72 58.088C154.61 59.24 153.298 60.1573 151.784 60.84C150.269 61.5013 148.648 61.832 146.92 61.832C144.594 61.832 142.472 61.2667 140.552 60.136C138.632 58.984 137.096 57.4587 135.944 55.56C134.813 53.64 134.248 51.5067 134.248 49.16ZM176.336 77H168.528V29H176.336V33.064C177.381 31.6133 178.661 30.44 180.176 29.544C181.712 28.6267 183.504 28.168 185.552 28.168C187.898 28.168 190.085 28.6053 192.112 29.48C194.138 30.3547 195.92 31.5707 197.456 33.128C199.013 34.664 200.218 36.4453 201.072 38.472C201.946 40.4987 202.384 42.6747 202.384 45C202.384 47.3253 201.946 49.512 201.072 51.56C200.218 53.608 199.013 55.4107 197.456 56.968C195.92 58.504 194.138 59.7093 192.112 60.584C190.085 61.4587 187.898 61.896 185.552 61.896C183.504 61.896 181.712 61.448 180.176 60.552C178.661 59.6347 177.381 58.4507 176.336 57V77ZM185.456 35.688C183.834 35.688 182.384 36.1147 181.104 36.968C179.824 37.8 178.821 38.92 178.096 40.328C177.37 41.736 177.008 43.2933 177.008 45C177.008 46.7067 177.37 48.2747 178.096 49.704C178.821 51.112 179.824 52.2427 181.104 53.096C182.384 53.928 183.834 54.344 185.456 54.344C187.098 54.344 188.602 53.928 189.968 53.096C191.333 52.264 192.421 51.144 193.232 49.736C194.042 48.3067 194.448 46.728 194.448 45C194.448 43.2933 194.042 41.736 193.232 40.328C192.421 38.92 191.333 37.8 189.968 36.968C188.624 36.1147 187.12 35.688 185.456 35.688Z" fill="#FEC700"/>
</svg>
